{"glyphs":{":":{"x_min":0,"x_max":252,"ha":252,"o":"m 67 50 q 67 75 84 92 q 101 109 126 109 q 151 109 168 92 q 185 75 185 50 q 185 25 168 8 q 151 -9 126 -9 q 101 -9 84 8 q 67 25 67 50 z m 67 403 q 67 428 84 444 q 101 461 126 461 q 151 461 168 444 q 185 428 185 403 q 185 378 168 361 q 151 344 126 344 q 101 344 84 361 q 67 378 67 403 z"},"$":{"x_min":0,"x_max":505,"ha":505,"o":"m 223 411 l 223 587 q 176 586 149 564 q 122 541 122 503 q 122 470 147 448 q 172 425 223 411 z m 285 100 q 331 103 355 125 q 380 147 380 184 q 380 220 355 246 q 331 272 285 286 z m 23 75 l 23 203 q 78 155 128 129 q 178 104 223 101 l 223 310 q 125 334 76 381 q 27 428 27 496 q 27 569 80 619 q 134 669 223 677 l 223 751 l 285 751 l 285 678 q 329 675 369 660 q 409 646 446 619 l 446 511 q 399 547 359 566 q 318 585 285 587 l 285 393 q 382 363 431 312 q 481 262 481 193 q 481 112 431 63 q 381 15 285 3 l 285 -107 l 223 -107 l 223 2 l 216 2 q 172 2 125 20 q 79 37 23 75 z"},"?":{"x_min":0,"x_max":313,"ha":313,"o":"m 200 52 q 200 26 182 9 q 165 -9 139 -9 q 113 -9 96 9 q 78 26 78 52 q 78 77 96 94 q 113 112 139 112 q 165 112 182 94 q 200 77 200 52 z m 43 668 q 68 682 94 688 q 120 695 148 695 q 212 695 254 652 q 296 610 296 544 q 296 504 281 469 q 267 433 230 386 q 219 372 198 347 q 138 277 138 239 q 138 231 140 223 q 141 215 144 207 l 121 197 q 101 218 91 240 q 81 263 81 288 q 81 312 90 336 q 98 360 119 394 q 125 405 139 424 q 187 497 187 534 q 187 563 169 581 q 152 598 123 598 q 104 598 80 589 q 57 581 24 562 z"},"<":{"x_min":0,"x_max":833,"ha":833,"o":"m 704 491 l 231 298 l 704 106 l 704 31 l 129 267 l 129 330 l 704 566 z"},"'":{"x_min":0,"x_max":155,"ha":155,"o":"m 112 701 l 112 430 l 44 430 l 44 701 z"},"=":{"x_min":0,"x_max":833,"ha":833,"o":"m 709 235 l 709 167 l 124 167 l 124 235 z m 709 429 l 709 361 l 124 361 l 124 429 z"},"a":{"x_min":0,"x_max":433,"ha":433,"o":"m 279 92 l 279 224 q 188 196 154 172 q 119 148 119 116 q 119 88 137 73 q 155 58 187 58 q 211 58 234 67 q 257 75 279 92 z m 282 37 q 248 13 218 3 q 187 -8 152 -8 q 91 -8 57 21 q 23 50 23 101 q 23 149 60 185 q 97 221 172 246 l 279 282 q 279 286 280 290 q 280 293 280 301 q 280 341 260 359 q 240 377 195 377 q 157 377 117 361 q 77 345 37 314 l 37 403 q 72 431 115 446 q 158 460 206 460 q 293 460 333 422 q 372 383 372 298 l 372 107 q 372 83 376 73 q 380 63 390 63 q 398 63 407 67 q 417 72 437 88 l 437 33 q 413 12 388 2 q 363 -8 336 -8 q 310 -8 297 3 q 284 14 282 37 z"},"L":{"x_min":0,"x_max":505,"ha":505,"o":"m 76 0 l 76 683 l 173 683 l 173 88 l 498 88 l 498 0 z"},"3":{"x_min":0,"x_max":505,"ha":505,"o":"m 66 28 l 66 132 q 106 111 143 100 q 180 90 213 90 q 265 90 296 119 q 326 148 326 199 q 326 251 290 279 q 254 307 181 312 l 181 398 q 245 398 282 427 q 319 456 319 506 q 319 550 284 578 q 250 606 194 606 q 172 606 147 599 q 122 593 79 575 l 79 663 q 114 679 146 687 q 179 695 211 695 q 303 695 359 645 q 415 596 415 515 q 415 467 394 429 q 373 391 333 365 q 379 342 405 300 q 430 257 430 202 q 430 107 369 47 q 309 -12 210 -12 q 175 -12 140 -2 q 105 7 66 28 z"},";":{"x_min":0,"x_max":252,"ha":252,"o":"m 67 402 q 67 427 84 444 q 101 461 126 461 q 151 461 168 444 q 186 427 186 402 q 186 377 168 360 q 151 343 126 343 q 101 343 84 360 q 67 377 67 402 z m 108 -9 q 87 2 77 16 q 67 31 67 51 q 67 76 82 92 q 98 109 121 109 q 150 109 168 83 q 186 58 186 16 q 186 -37 156 -74 q 126 -112 70 -131 l 69 -113 q 88 -96 98 -74 q 108 -51 108 -22 z"},"J":{"x_min":0,"x_max":252,"ha":252,"o":"m -61 -140 l -46 -140 q 27 -140 53 -113 q 79 -86 79 -7 l 79 683 l 176 683 l 176 18 q 176 -82 161 -124 q 146 -165 111 -193 q 88 -211 54 -220 q 20 -230 -22 -230 l -39 -230 z"},"V":{"x_min":0,"x_max":593,"ha":593,"o":"m 281 -5 l -20 683 l 82 683 l 295 196 l 512 683 l 613 683 l 306 -5 z"},"\"":{"x_min":0,"x_max":300,"ha":300,"o":"m 256 701 l 256 430 l 188 430 l 188 701 z m 112 701 l 112 430 l 44 430 l 44 701 z"},"7":{"x_min":0,"x_max":505,"ha":505,"o":"m 102 21 l 351 594 l 60 594 l 60 683 l 496 683 l 186 -17 z"},"S":{"x_min":0,"x_max":461,"ha":461,"o":"m 38 53 l 38 182 q 84 129 127 105 q 169 82 217 82 q 268 82 297 106 q 326 129 326 170 q 326 203 306 228 q 287 253 212 301 q 96 375 67 417 q 37 458 37 514 q 37 594 94 645 q 150 696 239 696 q 278 696 317 684 q 355 673 394 649 l 394 538 q 349 574 311 591 q 273 607 235 607 q 189 607 160 584 q 131 562 131 526 q 131 475 251 400 l 266 391 q 364 330 395 283 q 425 237 425 168 q 425 90 368 39 q 312 -12 223 -12 q 168 -12 124 3 q 79 19 38 53 z"},"}":{"x_min":0,"x_max":500,"ha":500,"o":"m 281 546 l 281 426 q 281 354 307 324 q 333 295 397 295 q 400 295 408 295 q 415 296 419 296 l 419 223 q 416 223 408 224 q 401 224 398 224 q 333 224 307 195 q 281 165 281 92 l 281 -28 q 281 -100 270 -131 q 259 -162 232 -178 q 211 -191 182 -197 q 152 -202 99 -202 l 78 -202 l 78 -130 l 97 -130 q 156 -130 176 -108 q 197 -86 197 -17 l 197 100 q 197 178 219 211 q 240 245 295 259 q 240 273 219 307 q 197 340 197 418 l 197 536 q 197 604 176 626 q 156 648 97 648 l 78 648 l 78 721 l 96 721 q 148 721 180 715 q 211 709 232 696 q 259 679 270 649 q 281 618 281 546 z"},"Z":{"x_min":0,"x_max":637,"ha":637,"o":"m 7 0 l 456 597 l 39 597 l 39 683 l 625 683 l 625 672 l 184 84 l 625 84 l 625 0 z"},"x":{"x_min":0,"x_max":476,"ha":476,"o":"m -4 0 l 178 233 l 0 451 l 111 451 l 232 298 l 351 451 l 462 451 l 289 235 l 479 0 l 370 0 l 235 166 l 105 0 z"},")":{"x_min":0,"x_max":315,"ha":315,"o":"m 72 -226 l 14 -226 q 95 -111 135 1 q 176 114 176 225 q 176 353 133 470 q 89 587 3 694 l 57 694 q 162 573 212 461 q 261 348 261 230 q 261 109 215 -2 q 169 -113 72 -226 z"},"&":{"x_min":0,"x_max":652,"ha":652,"o":"m 376 166 l 261 303 q 190 260 161 229 q 132 198 132 166 q 132 129 157 106 q 183 84 225 84 q 256 84 292 103 q 328 123 376 166 z m 287 416 q 340 451 362 480 q 384 508 384 541 q 384 574 360 595 q 337 616 300 616 q 265 616 241 595 q 217 573 217 542 q 217 518 235 485 q 253 452 287 416 z m 644 0 l 517 0 l 435 98 q 384 41 331 14 q 278 -12 217 -12 q 132 -12 81 35 q 30 83 30 160 q 30 218 70 267 q 109 315 202 368 q 161 409 141 449 q 122 490 122 534 q 122 606 170 651 q 219 695 298 695 q 377 695 426 652 q 474 610 474 542 q 474 486 444 441 q 413 396 345 353 l 445 237 q 464 259 483 287 q 501 315 519 352 l 621 352 q 603 301 574 254 q 545 208 507 165 z"},"_":{"x_min":0,"x_max":500,"ha":500,"o":"m 500 -166 l 500 -236 l 0 -236 l 0 -166 z"},"v":{"x_min":0,"x_max":444,"ha":444,"o":"m 203 -9 l -14 451 l 86 451 l 225 152 l 355 451 l 453 451 l 245 -9 z"},"O":{"x_min":0,"x_max":801,"ha":801,"o":"m 140 341 q 140 289 160 241 q 179 194 216 157 q 251 121 300 101 q 348 81 400 81 q 454 81 501 100 q 548 120 585 157 q 622 194 641 241 q 661 289 661 341 q 661 393 642 440 q 622 486 584 525 q 547 562 500 582 q 453 602 400 602 q 349 602 302 582 q 254 562 216 525 q 179 489 160 441 q 140 394 140 341 z m 36 344 q 36 413 64 477 q 92 542 143 591 q 195 641 261 667 q 327 694 400 694 q 474 694 541 667 q 607 641 658 591 q 711 539 738 476 q 765 412 765 338 q 765 268 738 204 q 710 140 659 91 q 606 40 540 14 q 475 -12 400 -12 q 327 -12 260 15 q 194 42 143 91 q 90 142 63 207 q 36 271 36 344 z"},"(":{"x_min":0,"x_max":315,"ha":315,"o":"m 243 -226 q 146 -113 100 -2 q 54 109 54 230 q 54 349 103 461 q 152 574 257 694 l 312 694 q 226 587 182 470 q 139 353 139 225 q 139 113 179 1 q 219 -112 300 -226 z"},"C":{"x_min":0,"x_max":694,"ha":694,"o":"m 655 162 l 655 52 q 595 21 532 4 q 470 -12 409 -12 q 351 -12 297 3 q 244 19 197 49 q 121 99 78 176 q 36 253 36 344 q 36 413 64 478 q 92 542 143 591 q 198 643 266 668 q 333 694 416 694 q 474 694 530 681 q 587 667 649 639 l 649 533 q 584 568 527 585 q 470 602 416 602 q 296 602 218 528 q 140 453 140 341 q 140 230 217 156 q 294 81 410 81 q 470 81 531 101 q 592 121 655 162 z"},"W":{"x_min":0,"x_max":931,"ha":931,"o":"m 236 -5 l -17 683 l 84 683 l 251 217 l 435 683 l 497 683 l 679 216 l 849 683 l 948 683 l 691 -5 l 669 -5 l 465 521 l 259 -5 z"},"A":{"x_min":0,"x_max":623,"ha":623,"o":"m 203 289 l 416 289 l 308 535 z m -22 0 l 274 683 l 345 683 l 645 0 l 544 0 l 456 201 l 165 201 l 78 0 z"},"f":{"x_min":0,"x_max":264,"ha":264,"o":"m 171 0 l 78 0 l 78 373 l 19 373 l 19 451 l 78 451 l 78 492 q 78 551 83 577 q 88 604 100 623 q 120 655 154 672 q 188 690 231 690 q 244 690 261 688 q 278 685 303 679 l 303 600 q 284 604 270 606 q 256 608 246 608 q 205 608 188 585 q 171 562 171 506 l 171 451 l 231 451 l 231 373 l 171 373 z"},"Q":{"x_min":0,"x_max":801,"ha":801,"o":"m 140 341 q 140 289 160 241 q 179 194 216 157 q 252 120 301 100 q 349 79 400 79 q 453 79 500 99 q 547 119 585 157 q 622 194 641 241 q 661 289 661 341 q 661 393 642 440 q 622 486 584 525 q 547 562 500 582 q 453 602 400 602 q 349 602 302 582 q 254 562 216 525 q 179 489 160 441 q 140 394 140 341 z m 310 0 q 186 30 111 125 q 36 219 36 344 q 36 413 64 477 q 92 542 143 591 q 195 641 261 667 q 327 694 400 694 q 474 694 541 667 q 607 641 658 591 q 711 539 738 476 q 765 412 765 338 q 765 217 689 126 q 614 36 482 0 q 543 -27 591 -40 q 638 -52 681 -52 q 695 -52 712 -50 q 729 -48 749 -44 l 753 -54 l 660 -135 q 655 -136 651 -136 q 646 -136 637 -136 q 570 -136 487 -102 q 404 -67 310 0 z"},"w":{"x_min":0,"x_max":748,"ha":748,"o":"m 194 -9 l -6 451 l 89 451 l 218 152 l 342 451 l 401 451 l 527 153 l 656 451 l 751 451 l 550 -9 l 506 -9 l 372 318 l 238 -9 z"},"-":{"x_min":0,"x_max":338,"ha":338,"o":"m 41 185 l 41 266 l 297 266 l 297 185 z"},"E":{"x_min":0,"x_max":544,"ha":544,"o":"m 73 0 l 73 683 l 484 683 l 484 596 l 170 596 l 170 389 l 475 389 l 475 301 l 170 301 l 170 88 l 494 88 l 494 0 z"},"s":{"x_min":0,"x_max":376,"ha":376,"o":"m 28 31 l 28 127 q 68 100 106 86 q 144 72 175 72 q 209 72 229 85 q 249 98 249 120 q 249 148 175 185 q 154 196 142 202 q 79 234 56 264 q 32 294 32 338 q 32 395 73 428 q 113 461 184 461 q 222 461 257 452 q 292 443 326 424 l 326 336 q 285 359 250 370 q 216 381 185 381 q 157 381 141 371 q 126 361 126 343 q 126 309 220 262 l 229 258 q 302 221 325 193 q 347 165 347 122 q 347 62 302 27 q 258 -9 184 -9 q 142 -9 103 1 q 65 11 28 31 z"},">":{"x_min":0,"x_max":833,"ha":833,"o":"m 704 330 l 704 267 l 129 31 l 129 106 l 603 298 l 129 491 l 129 566 z"},"l":{"x_min":0,"x_max":211,"ha":211,"o":"m 60 0 l 60 683 l 150 683 l 150 0 z"},"8":{"x_min":0,"x_max":505,"ha":505,"o":"m 128 353 q 90 378 70 417 q 50 457 50 505 q 50 588 108 642 q 166 695 257 695 q 342 695 399 641 q 455 587 455 506 q 455 457 434 416 q 414 375 377 353 q 424 335 450 293 q 477 251 477 195 q 477 106 413 47 q 349 -12 252 -12 q 154 -12 91 47 q 27 106 27 196 q 27 252 54 294 q 81 336 128 353 z m 364 503 q 364 549 333 578 q 303 606 253 606 q 204 606 174 578 q 143 549 143 504 q 143 456 175 424 q 206 392 251 392 q 300 392 332 423 q 364 454 364 503 z m 131 194 q 131 145 164 112 q 197 80 248 80 q 304 80 338 112 q 372 144 372 195 q 372 245 340 274 q 307 304 253 304 q 199 304 165 273 q 131 242 131 194 z"},"\\":{"x_min":0,"x_max":282,"ha":282,"o":"m 240 -93 l 2 694 l 72 694 l 307 -93 z"},"e":{"x_min":0,"x_max":488,"ha":488,"o":"m 453 48 q 408 19 361 5 q 313 -10 262 -10 q 155 -10 92 56 q 28 123 28 233 q 28 334 89 397 q 150 460 249 460 q 347 460 404 396 q 461 332 461 223 l 461 210 l 123 210 q 127 146 165 110 q 203 74 267 74 q 310 74 357 90 q 403 106 453 138 z m 123 274 l 362 274 q 357 323 326 353 q 295 383 248 383 q 196 383 165 355 q 133 328 123 274 z"},"b":{"x_min":0,"x_max":517,"ha":517,"o":"m 150 91 q 174 82 197 78 q 219 73 241 73 q 312 73 352 113 q 391 152 391 225 q 391 296 353 337 q 315 378 250 378 q 224 378 199 370 q 175 361 150 344 z m 59 21 l 59 683 l 150 683 l 150 426 q 175 444 204 452 q 233 461 269 461 q 368 461 427 397 q 487 333 487 226 q 487 113 420 52 q 353 -10 231 -10 q 190 -10 148 -2 q 105 5 59 21 z"},"%":{"x_min":0,"x_max":959,"ha":959,"o":"m 612 191 q 612 143 645 110 q 679 77 727 77 q 774 77 808 110 q 841 143 841 191 q 841 239 808 272 q 774 306 727 306 q 679 306 646 272 q 612 239 612 191 z m 523 191 q 523 276 582 336 q 642 395 727 395 q 812 395 871 336 q 930 276 930 191 q 930 106 871 47 q 812 -12 727 -12 q 642 -12 582 47 q 523 106 523 191 z m 208 -12 l 669 695 l 751 695 l 288 -12 z m 117 491 q 117 443 150 409 q 183 376 231 376 q 278 376 312 409 q 345 443 345 491 q 345 539 312 572 q 278 605 231 605 q 183 605 150 572 q 117 539 117 491 z m 28 490 q 28 576 87 635 q 146 694 231 694 q 316 694 375 635 q 435 575 435 490 q 435 405 375 346 q 316 287 231 287 q 146 287 87 346 q 28 405 28 490 z"},"m":{"x_min":0,"x_max":794,"ha":794,"o":"m 57 0 l 57 451 l 147 451 l 147 396 q 181 428 214 443 q 248 458 286 458 q 336 458 369 440 q 403 421 426 382 q 467 423 504 440 q 540 458 581 458 q 655 458 698 416 q 740 373 740 299 l 740 0 l 649 0 l 649 276 q 649 331 626 357 q 604 383 555 383 q 520 383 493 369 q 467 356 442 325 l 442 0 l 354 0 l 354 276 q 354 331 331 357 q 308 383 259 383 q 224 383 198 369 q 172 356 147 325 l 147 0 z"},"#":{"x_min":0,"x_max":769,"ha":769,"o":"m 473 419 l 346 419 l 301 290 l 428 290 z m 451 712 l 372 490 l 497 490 l 577 712 l 657 712 l 579 490 l 726 490 l 701 419 l 553 419 l 508 291 l 665 291 l 640 219 l 483 219 l 404 -2 l 323 -2 l 402 219 l 276 219 l 197 -2 l 116 -2 l 194 219 l 43 219 l 69 291 l 220 291 l 265 419 l 104 419 l 129 490 l 291 490 l 370 712 z"},",":{"x_min":0,"x_max":252,"ha":252,"o":"m 108 -9 q 86 2 75 17 q 65 32 65 51 q 65 76 81 92 q 98 109 121 109 q 150 109 169 83 q 187 58 187 16 q 187 -36 157 -74 q 126 -112 70 -131 l 69 -113 q 88 -96 98 -74 q 108 -51 108 -22 z"},"n":{"x_min":0,"x_max":499,"ha":499,"o":"m 57 0 l 57 451 l 147 451 l 147 396 q 181 428 214 443 q 248 458 286 458 q 359 458 402 416 q 444 373 444 299 l 444 0 l 354 0 l 354 276 q 354 331 331 357 q 308 383 259 383 q 224 383 198 369 q 172 356 147 325 l 147 0 z"},"h":{"x_min":0,"x_max":501,"ha":501,"o":"m 59 0 l 59 683 l 149 683 l 149 396 q 183 428 216 443 q 250 458 288 458 q 362 458 404 416 q 447 373 447 299 l 447 0 l 356 0 l 356 276 q 356 331 333 357 q 311 383 262 383 q 227 383 200 369 q 173 355 149 325 l 149 0 z"},"z":{"x_min":0,"x_max":441,"ha":441,"o":"m 9 0 l 9 12 l 261 368 l 19 368 l 19 451 l 418 451 l 418 441 l 171 85 l 422 85 l 422 0 z"},"B":{"x_min":0,"x_max":579,"ha":579,"o":"m 170 301 l 170 89 l 300 89 q 371 89 404 114 q 437 139 437 193 q 437 249 400 275 q 363 301 284 301 z m 73 0 l 73 683 l 273 683 q 375 683 430 637 q 486 590 486 505 q 486 452 461 417 q 436 382 385 363 q 459 345 500 299 q 541 252 541 186 q 541 101 479 51 q 417 0 310 0 z m 170 390 l 236 390 q 311 390 347 417 q 383 444 383 499 q 383 549 354 572 q 326 595 263 595 l 170 595 z"},"K":{"x_min":0,"x_max":611,"ha":611,"o":"m 76 0 l 76 683 l 174 683 l 174 376 l 459 683 l 582 683 l 285 363 l 639 0 l 503 0 l 174 338 l 174 0 z"},"R":{"x_min":0,"x_max":565,"ha":565,"o":"m 72 0 l 72 683 l 272 683 q 375 683 432 634 q 488 585 488 496 q 488 429 457 388 q 426 347 360 326 q 377 317 392 302 q 407 286 431 250 l 597 0 l 479 0 l 362 179 q 309 260 277 283 q 244 305 199 305 l 170 305 l 170 0 z m 170 387 l 251 387 q 319 387 353 414 q 387 440 387 494 q 387 550 355 575 q 323 600 251 600 l 170 600 z"},"T":{"x_min":0,"x_max":613,"ha":613,"o":"m 258 0 l 258 594 l 7 594 l 7 683 l 606 683 l 606 594 l 355 594 l 355 0 z"},"P":{"x_min":0,"x_max":542,"ha":542,"o":"m 170 381 l 276 381 q 347 381 379 406 q 411 432 411 488 q 411 544 379 570 q 347 595 276 595 l 170 595 z m 73 0 l 73 683 l 286 683 q 393 683 453 631 q 513 580 513 488 q 513 396 453 345 q 393 294 286 294 l 170 294 l 170 0 z"},"|":{"x_min":0,"x_max":500,"ha":500,"o":"m 287 764 l 287 -236 l 214 -236 l 214 764 z"},"t":{"x_min":0,"x_max":322,"ha":322,"o":"m 306 14 q 285 2 261 -3 q 237 -9 209 -9 q 133 -9 102 27 q 71 63 71 159 l 71 373 l -6 373 l -6 382 l 152 556 l 162 556 l 162 451 l 303 451 l 303 373 l 162 373 l 162 166 q 162 110 176 94 q 190 77 228 77 q 249 77 268 83 q 288 88 306 99 z"},"M":{"x_min":0,"x_max":808,"ha":808,"o":"m 73 0 l 73 683 l 158 683 l 404 396 l 650 683 l 735 683 l 735 0 l 640 0 l 640 533 l 404 258 l 168 533 l 168 0 z"},"g":{"x_min":0,"x_max":447,"ha":447,"o":"m 84 -84 q 84 -117 117 -134 q 150 -151 215 -151 q 278 -151 313 -134 q 349 -118 349 -89 q 349 -57 309 -41 q 269 -25 188 -25 q 142 -25 113 -42 q 84 -59 84 -84 z m 137 144 q 86 160 60 196 q 33 232 33 285 q 33 367 90 409 q 146 451 258 451 l 437 451 l 437 378 l 361 378 q 379 358 388 336 q 397 313 397 286 q 397 229 363 189 q 328 149 270 139 q 257 137 236 133 q 163 122 163 96 q 163 70 267 50 q 292 45 307 42 q 373 28 406 -4 q 440 -36 440 -86 q 440 -155 383 -191 q 325 -227 216 -227 q 109 -227 52 -192 q -4 -157 -4 -91 q -4 -43 29 -13 q 62 18 126 30 q 100 42 88 55 q 76 68 76 85 q 76 103 91 117 q 105 131 137 144 z m 216 375 q 174 375 148 351 q 122 327 122 289 q 122 250 147 227 q 172 205 216 205 q 260 205 286 228 q 312 250 312 289 q 312 327 285 351 q 258 375 216 375 z"},"j":{"x_min":0,"x_max":213,"ha":213,"o":"m 1 -163 q 35 -146 48 -124 q 62 -101 62 -61 l 62 451 l 153 451 l 153 -53 q 153 -125 130 -164 q 108 -204 56 -227 z m 56 584 q 56 605 71 620 q 86 635 108 635 q 129 635 144 620 q 159 605 159 584 q 159 562 144 548 q 129 533 108 533 q 86 533 71 548 q 56 562 56 584 z"},"i":{"x_min":0,"x_max":211,"ha":211,"o":"m 54 584 q 54 605 69 620 q 83 635 105 635 q 126 635 141 620 q 156 605 156 584 q 156 562 141 548 q 126 533 105 533 q 83 533 69 548 q 54 562 54 584 z m 60 0 l 60 451 l 150 451 l 150 0 z"},"y":{"x_min":0,"x_max":444,"ha":444,"o":"m 176 89 l -14 451 l 86 451 l 225 187 l 355 451 l 453 451 l 118 -227 l 20 -227 z"},"@":{"x_min":0,"x_max":1000,"ha":1000,"o":"m 627 417 l 655 473 l 719 473 l 648 192 q 646 184 645 177 q 644 169 644 163 q 644 141 656 129 q 669 117 693 117 q 716 117 743 130 q 770 143 795 167 q 834 204 856 258 q 878 312 878 372 q 878 499 785 577 q 692 656 541 656 q 476 656 421 642 q 366 628 318 600 q 225 544 173 454 q 122 363 122 254 q 122 167 152 104 q 182 40 246 -9 q 295 -46 362 -67 q 428 -87 502 -87 q 584 -87 662 -63 q 740 -39 805 6 l 832 -34 q 760 -88 678 -116 q 597 -143 508 -143 q 415 -143 338 -120 q 261 -97 201 -52 q 126 6 89 82 q 52 158 52 255 q 52 335 77 408 q 103 480 151 539 q 222 626 323 671 q 423 716 545 716 q 625 716 696 694 q 768 672 820 632 q 883 583 916 519 q 949 455 949 381 q 949 295 918 227 q 887 159 828 112 q 795 85 755 71 q 715 57 674 57 q 625 57 601 76 q 576 96 576 134 l 576 143 q 549 100 513 79 q 477 58 429 58 q 354 58 315 100 q 276 141 276 220 q 276 335 343 413 q 411 490 509 490 q 550 490 580 472 q 609 454 627 417 z m 581 232 l 610 347 q 602 390 576 414 q 551 437 513 437 q 446 437 400 374 q 354 310 354 218 q 354 167 378 139 q 401 111 445 111 q 492 111 530 145 q 568 178 581 232 z"},".":{"x_min":0,"x_max":252,"ha":252,"o":"m 67 51 q 67 76 84 93 q 101 110 126 110 q 151 110 168 93 q 185 76 185 51 q 185 26 168 9 q 151 -8 126 -8 q 101 -8 84 9 q 67 26 67 51 z"},"p":{"x_min":0,"x_max":517,"ha":517,"o":"m 150 352 l 150 99 q 172 83 195 75 q 217 68 243 68 q 312 68 352 110 q 391 152 391 226 q 391 299 352 341 q 312 383 243 383 q 217 383 195 375 q 172 368 150 352 z m 59 -227 l 59 451 l 150 451 l 150 426 q 175 444 204 452 q 232 461 266 461 q 364 461 425 396 q 487 330 487 226 q 487 122 425 57 q 364 -9 266 -9 q 231 -9 203 -1 q 175 7 150 25 l 150 -227 z"},"X":{"x_min":0,"x_max":718,"ha":718,"o":"m -10 0 l 304 362 l 33 683 l 154 683 l 365 433 l 580 683 l 701 683 l 425 362 l 727 0 l 608 0 l 363 292 l 110 0 z"},"*":{"x_min":0,"x_max":442,"ha":442,"o":"m 338 660 l 386 612 l 248 506 l 420 529 l 420 461 l 248 484 l 386 378 l 338 330 l 232 468 l 255 296 l 187 296 l 209 468 l 104 330 l 56 378 l 194 484 l 22 461 l 22 529 l 194 507 l 56 612 l 104 660 l 209 522 l 187 694 l 255 694 l 232 522 z"},"Y":{"x_min":0,"x_max":583,"ha":583,"o":"m 237 0 l 237 342 l -27 683 l 89 683 l 288 424 l 492 683 l 610 683 l 336 337 l 336 0 z"},"c":{"x_min":0,"x_max":440,"ha":440,"o":"m 410 107 l 410 15 q 376 3 344 -3 q 312 -9 280 -9 q 169 -9 99 57 q 28 124 28 226 q 28 326 99 394 q 169 461 276 461 q 309 461 340 454 q 372 447 403 433 l 403 337 q 372 356 341 365 q 311 374 279 374 q 209 374 166 333 q 122 291 122 226 q 122 160 167 118 q 211 76 283 76 q 316 76 348 84 q 379 91 410 107 z"},"!":{"x_min":0,"x_max":252,"ha":252,"o":"m 64 53 q 64 80 82 97 q 99 115 125 115 q 151 115 169 97 q 187 79 187 53 q 187 27 169 9 q 151 -9 125 -9 q 99 -9 82 9 q 64 26 64 53 z m 118 212 q 97 264 83 364 q 68 464 68 572 q 68 636 81 665 q 95 694 124 694 q 153 694 167 666 q 181 638 181 578 q 181 482 168 387 q 155 292 131 212 z"},"/":{"x_min":0,"x_max":282,"ha":282,"o":"m 43 -93 l -25 -93 l 211 694 l 281 694 z"},"[":{"x_min":0,"x_max":313,"ha":313,"o":"m 85 -209 l 85 683 l 304 683 l 304 615 l 168 615 l 168 -141 l 304 -141 l 304 -209 z"},"6":{"x_min":0,"x_max":505,"ha":505,"o":"m 142 264 q 140 251 138 241 q 137 231 137 222 q 137 158 170 119 q 204 80 258 80 q 307 80 337 111 q 367 142 367 193 q 367 244 336 277 q 305 309 256 309 q 223 309 195 298 q 167 287 142 264 z m 159 369 q 192 385 220 393 q 249 401 272 401 q 356 401 411 343 q 466 286 466 198 q 466 107 405 48 q 344 -11 250 -11 q 154 -11 95 55 q 37 122 37 231 q 37 367 108 484 q 179 602 317 694 l 370 627 q 282 566 231 504 q 180 441 159 369 z"},"r":{"x_min":0,"x_max":375,"ha":375,"o":"m 58 0 l 58 451 l 148 451 l 148 353 q 186 412 216 436 q 246 459 281 459 q 305 459 330 448 q 355 438 384 415 l 335 335 q 313 354 293 363 q 273 371 251 371 q 214 371 187 340 q 160 310 148 255 l 148 0 z"},"2":{"x_min":0,"x_max":505,"ha":505,"o":"m 34 0 q 85 76 153 161 q 220 246 228 258 q 275 326 299 380 q 322 435 322 477 q 322 533 290 567 q 258 601 205 601 q 168 601 130 580 q 92 559 52 517 l 52 634 q 94 665 135 680 q 176 695 218 695 q 309 695 364 638 q 420 581 420 488 q 420 411 374 324 q 328 237 210 99 l 468 99 l 468 0 z"},"{":{"x_min":0,"x_max":500,"ha":500,"o":"m 423 648 l 403 648 q 344 648 324 626 q 304 604 304 536 l 304 418 q 304 340 282 307 q 261 273 206 259 q 261 245 283 212 q 304 179 304 100 l 304 -18 q 304 -87 324 -108 q 345 -130 404 -130 l 423 -130 l 423 -202 l 402 -202 q 349 -202 319 -197 q 290 -191 269 -178 q 242 -162 231 -131 q 220 -100 220 -28 l 220 92 q 220 165 194 194 q 167 224 103 224 q 100 224 93 224 q 85 223 82 223 l 82 296 q 86 296 93 295 q 101 295 104 295 q 167 295 194 324 q 220 354 220 426 l 220 546 q 220 618 231 649 q 242 679 269 696 q 291 709 322 715 q 353 721 405 721 l 423 721 z"},"9":{"x_min":0,"x_max":505,"ha":505,"o":"m 359 419 l 360 422 q 365 449 365 461 q 365 525 332 565 q 298 604 244 604 q 195 604 165 573 q 135 542 135 491 q 135 440 166 407 q 197 375 245 375 q 279 375 307 386 q 335 396 359 419 z m 342 314 q 309 298 281 290 q 253 282 230 282 q 146 282 90 340 q 35 397 35 485 q 35 576 96 635 q 157 695 251 695 q 347 695 406 629 q 464 562 464 453 q 464 317 393 199 q 322 81 184 -11 l 131 56 q 218 115 270 179 q 323 244 342 314 z"}," ":{"x_min":0,"x_max":252,"ha":252,"o":""},"I":{"x_min":0,"x_max":250,"ha":250,"o":"m 76 0 l 76 683 l 174 683 l 174 0 z"},"H":{"x_min":0,"x_max":734,"ha":734,"o":"m 73 0 l 73 683 l 170 683 l 170 389 l 564 389 l 564 683 l 661 683 l 661 0 l 564 0 l 564 297 l 170 297 l 170 0 z"},"4":{"x_min":0,"x_max":505,"ha":505,"o":"m 298 0 l 298 228 l 6 228 l 6 269 l 350 694 l 392 694 l 392 309 l 468 309 l 468 228 l 392 228 l 392 0 z m 298 309 l 301 515 l 137 309 z"},"~":{"x_min":0,"x_max":833,"ha":833,"o":"m 747 300 q 696 265 650 248 q 604 231 557 231 q 512 231 432 259 q 421 263 416 265 l 408 268 q 322 297 275 297 q 234 297 189 279 q 145 261 87 220 l 87 296 q 139 331 186 349 q 232 366 276 366 q 306 366 338 360 q 370 353 418 336 q 426 333 441 328 q 519 300 558 300 q 601 300 646 318 q 690 336 747 376 z"},"D":{"x_min":0,"x_max":741,"ha":741,"o":"m 324 590 l 170 590 l 170 93 l 324 93 q 451 93 523 159 q 595 226 595 341 q 595 457 523 523 q 451 590 324 590 z m 324 683 q 400 683 454 669 q 509 655 554 624 q 624 577 661 504 q 699 430 699 342 q 699 253 661 179 q 623 105 554 59 q 510 28 455 14 q 399 0 324 0 l 73 0 l 73 683 z"},"^":{"x_min":0,"x_max":1000,"ha":1000,"o":"m 545 712 l 794 440 l 706 440 l 500 645 l 293 440 l 205 440 l 454 712 z"},"0":{"x_min":0,"x_max":505,"ha":505,"o":"m 126 341 q 126 216 159 148 q 191 81 252 81 q 312 81 345 148 q 378 216 378 341 q 378 466 345 534 q 312 602 252 602 q 192 602 159 534 q 126 466 126 341 z m 28 341 q 28 504 89 599 q 149 694 252 694 q 354 694 415 599 q 476 504 476 341 q 476 178 415 83 q 354 -12 252 -12 q 149 -12 89 83 q 28 178 28 341 z"},"F":{"x_min":0,"x_max":503,"ha":503,"o":"m 73 0 l 73 683 l 462 683 l 462 596 l 170 596 l 170 394 l 453 394 l 453 306 l 170 306 l 170 0 z"},"`":{"x_min":0,"x_max":500,"ha":500,"o":"m 317 515 l 265 515 l 128 685 l 215 685 z"},"k":{"x_min":0,"x_max":483,"ha":483,"o":"m 458 451 l 269 245 l 496 0 l 373 0 l 153 240 l 347 451 z m 60 0 l 60 683 l 150 683 l 150 0 z"},"u":{"x_min":0,"x_max":499,"ha":499,"o":"m 352 55 q 318 23 285 8 q 251 -7 213 -7 q 139 -7 97 36 q 54 78 54 152 l 54 451 l 145 451 l 145 175 q 145 120 168 94 q 191 68 240 68 q 275 68 301 81 q 327 95 352 126 l 352 451 l 442 451 l 442 0 l 352 0 z"},"]":{"x_min":0,"x_max":313,"ha":313,"o":"m 229 682 l 229 -210 l 10 -210 l 10 -142 l 147 -142 l 147 614 l 10 614 l 10 682 z"},"U":{"x_min":0,"x_max":727,"ha":727,"o":"m 69 683 l 166 683 l 166 291 q 166 226 173 198 q 180 171 197 151 q 227 115 269 98 q 310 80 363 80 q 452 80 506 126 q 560 172 560 247 l 560 683 l 657 683 l 657 244 q 657 130 576 59 q 494 -12 363 -12 q 285 -12 223 15 q 160 43 117 96 q 91 128 80 167 q 69 206 69 287 z"},"o":{"x_min":0,"x_max":535,"ha":535,"o":"m 122 226 q 122 163 165 119 q 207 74 267 74 q 327 74 369 119 q 412 164 412 226 q 412 288 370 333 q 327 377 267 377 q 207 377 165 333 q 122 288 122 226 z m 28 226 q 28 324 98 393 q 167 461 268 461 q 315 461 359 443 q 402 425 436 392 q 471 357 489 315 q 507 273 507 226 q 507 180 488 136 q 470 92 436 59 q 402 25 359 8 q 316 -9 268 -9 q 167 -9 98 60 q 28 128 28 226 z"},"N":{"x_min":0,"x_max":778,"ha":778,"o":"m 73 0 l 73 683 l 158 683 l 608 153 l 608 683 l 705 683 l 705 0 l 618 0 l 170 531 l 170 0 z"},"+":{"x_min":0,"x_max":833,"ha":833,"o":"m 451 596 l 451 332 l 709 332 l 709 264 l 451 264 l 451 0 l 382 0 l 382 264 l 124 264 l 124 332 l 382 332 l 382 596 z"},"G":{"x_min":0,"x_max":708,"ha":708,"o":"m 655 335 l 655 46 q 587 17 527 2 q 467 -12 412 -12 q 351 -12 296 3 q 242 18 197 48 q 121 98 78 175 q 36 252 36 344 q 36 413 64 478 q 92 542 143 591 q 197 643 265 668 q 333 694 417 694 q 474 694 531 680 q 589 667 649 639 l 649 533 q 584 568 527 585 q 470 602 416 602 q 296 602 218 528 q 140 453 140 341 q 140 230 217 156 q 294 81 411 81 q 446 81 481 89 q 517 96 554 112 l 554 244 l 426 244 l 426 335 z"},"q":{"x_min":0,"x_max":517,"ha":517,"o":"m 368 98 l 368 351 q 346 367 323 374 q 300 382 274 382 q 205 382 166 340 q 126 298 126 224 q 126 151 166 109 q 205 67 274 67 q 300 67 323 74 q 346 82 368 98 z m 368 25 q 343 8 315 0 q 286 -9 251 -9 q 153 -9 92 57 q 30 122 30 226 q 30 330 92 396 q 153 461 251 461 q 285 461 314 452 q 343 444 368 426 l 368 451 l 458 451 l 458 -227 l 368 -227 z"},"d":{"x_min":0,"x_max":517,"ha":517,"o":"m 368 100 l 368 354 q 346 370 323 377 q 300 385 274 385 q 205 385 166 343 q 126 301 126 227 q 126 153 166 111 q 205 69 274 69 q 300 69 323 76 q 346 84 368 100 z m 368 25 q 343 8 315 0 q 286 -9 251 -9 q 153 -9 92 57 q 30 122 30 226 q 30 330 92 396 q 153 461 251 461 q 285 461 314 452 q 343 444 368 426 l 368 683 l 458 683 l 458 0 l 368 0 z"},"1":{"x_min":0,"x_max":505,"ha":505,"o":"m 204 0 l 204 683 l 301 683 l 301 0 z"},"5":{"x_min":0,"x_max":505,"ha":505,"o":"m 47 34 l 47 135 q 85 112 123 100 q 162 88 199 88 q 263 88 302 121 q 340 154 340 209 q 340 271 293 305 q 247 339 162 339 q 148 339 131 336 q 114 333 93 328 l 105 683 l 406 683 l 406 600 l 190 600 l 183 425 l 198 425 q 309 425 374 367 q 439 309 439 211 q 439 115 372 51 q 304 -12 201 -12 q 167 -12 128 0 q 90 11 47 34 z"}}}
